<svg width="40" height="40" viewBox="0 0 40 40" fill="none" xmlns="http://www.w3.org/2000/svg">
<g id="pajamas:location">
<path id="Vector" fill-rule="evenodd" clip-rule="evenodd" d="M31.25 14.9997C31.2552 17.4102 30.4809 19.7578 29.0425 21.6922L20 33.7497L10.9575 21.6922C9.89877 20.2618 9.19447 18.6006 8.90247 16.8451C8.61048 15.0896 8.7391 13.2899 9.27779 11.5938C9.81647 9.89771 10.7498 8.35359 12.0012 7.08829C13.2526 5.823 14.7864 4.87263 16.4764 4.31524C18.1665 3.75786 19.9646 3.60937 21.7232 3.88196C23.4818 4.15456 25.1507 4.84046 26.5927 5.88333C28.0347 6.92621 29.2087 8.2963 30.0183 9.88106C30.828 11.4658 31.2501 13.2201 31.25 14.9997ZM35 14.9997C35 18.3497 33.9025 21.4397 32.05 23.9347L22.3425 36.8747L20 39.9997L17.655 36.8747L7.95 23.9347C6.53672 22.0282 5.59594 19.8137 5.20497 17.4729C4.81399 15.1322 4.98398 12.7321 5.70097 10.4698C6.41796 8.20759 7.66148 6.14774 9.32937 4.45953C10.9973 2.77132 13.0419 1.50295 15.2953 0.758614C17.5487 0.0142812 19.9466 -0.184764 22.2919 0.177833C24.6372 0.540429 26.863 1.45432 28.7864 2.84441C30.7098 4.23451 32.2759 6.06113 33.3561 8.17421C34.4363 10.2873 34.9997 12.6265 35 14.9997ZM20 19.9997C21.3261 19.9997 22.5979 19.4729 23.5355 18.5352C24.4732 17.5975 25 16.3257 25 14.9997C25 13.6736 24.4732 12.4018 23.5355 11.4641C22.5979 10.5264 21.3261 9.99966 20 9.99966C18.6739 9.99966 17.4021 10.5264 16.4645 11.4641C15.5268 12.4018 15 13.6736 15 14.9997C15 16.3257 15.5268 17.5975 16.4645 18.5352C17.4021 19.4729 18.6739 19.9997 20 19.9997Z" fill="white"/>
</g>
</svg>
